<svg aria-hidden="true" style="position:absolute;width:0;height:0;overflow:hidden" xmlns="http://www.w3.org/2000/svg"><defs><symbol id="iconastronaut-svg" viewBox="0 0 32 32"><path fill="#2196f3" style="fill:var(--color1, #2196f3)" d="M31.97 4.52a.54.54 0 0 0-.42-.36l-1.92-.28-.85-1.73c-.18-.36-.78-.36-.96 0l-.85 1.73-1.91.28a.53.53 0 0 0-.3.91l1.38 1.35-.32 1.9c-.04.2.04.4.2.52.17.12.4.14.57.04l1.71-.9 1.7.9c.08.04.17.07.26.07a.53.53 0 0 0 .52-.63l-.32-1.9 1.38-1.35a.53.53 0 0 0 .13-.55zm-2.46 1.33a.53.53 0 0 0-.15.47l.19 1.12-1-.53a.52.52 0 0 0-.5 0l-1 .53.2-1.12v-.09a.53.53 0 0 0-.16-.38l-.81-.79 1.12-.16a.53.53 0 0 0 .4-.3l.5-1 .5 1c.08.16.23.27.4.3l1.12.16-.8.8zm-3.38 14.67h-1.06v1.07h1.06v-1.07zm0 2.14h-1.06v1.06h1.06v-1.06zm1.07-1.07h-1.07v1.07h1.07v-1.07zm-2.13 0H24v1.07h1.07v-1.07zm-2.67 4.8h-1.07v1.07h1.07v-1.07zm0 2.13h-1.07v1.07h1.07v-1.07zm1.07-1.06H22.4v1.06h1.07v-1.06zm-2.14 0h-1.06v1.06h1.06v-1.06zM16 24.26h-1.07v1.06H16v-1.06zm0 2.13h-1.07v1.07H16v-1.07zm1.07-1.07H16v1.07h1.07v-1.07zm-2.14 0h-1.06v1.07h1.06v-1.07zM5.87 6.12H4.8V7.2h1.07V6.12zm0 2.14H4.8v1.06h1.07V8.26zm1.06-1.07H5.87v1.07h1.06V7.19zm-2.13 0H3.73v1.07H4.8V7.19z"/><path fill="#212121" style="fill:var(--color2, #212121)" d="M24.71 14.16c-.28-.38-.7-.64-1.17-.7h-.01a1.77 1.77 0 0 0-1.34.35l-1.26.96-1.9 1.42-1.35-.55A6.94 6.94 0 0 0 14.83 2.4a6.95 6.95 0 0 0-6.96 6.93c0 1.39.41 2.68 1.12 3.76l-2.77-.02H6.2a.51.51 0 0 0-.16.04h-.03l-.02.02-3.24 1.6-1.9.9a1.78 1.78 0 0 0-.66 2.34c.23.42.6.74 1.05.88h.01a1.77 1.77 0 0 0 1.39-.13l1.38-.73 2.26-1.17 1.36-.01L2.2 22.2.86 23.55c-.3.3-.5.71-.5 1.17a1.67 1.67 0 0 0 2.85 1.18l1.32-1.3 1.74-1.3.9.9-3.1 3.08a1.65 1.65 0 0 0 1.17 2.84c.43 0 .86-.16 1.19-.48l4.49-4.48.02-.01 5.16-5.66 3.47.5a.47.47 0 0 0 .27-.04l.05-.02.05-.03 3.22-2.13.03-.03.04-.03 1.27-1.19a1.77 1.77 0 0 0 .2-2.36h.01zM2.14 17.77a.7.7 0 0 1-.56.05.72.72 0 0 1-.21-1.26l1.31-.63.32.92.13.4-1 .52zm3.5-1.83-1.55.8-.26-.74-.18-.54 2.03-1-.04 1.48zm15.1-6.62a5.8 5.8 0 0 1-.6 2.56l-4.18-1.9a1.86 1.86 0 0 0-.79-1.38l1.46-4.87a5.88 5.88 0 0 1 4.1 5.6zm-11.8 0a5.89 5.89 0 0 1 6.65-5.81l-1.44 4.75h-.05c-1.04 0-1.87.83-1.88 1.86 0 1.03.84 1.87 1.88 1.87.7 0 1.3-.38 1.62-.94l3.86 1.75A5.9 5.9 0 0 1 8.94 9.32zm5.96.8a.8.8 0 0 1-1.61 0c0-.44.36-.8.81-.8s.8.36.8.8zM2.46 25.15a.6.6 0 0 1-.85 0 .6.6 0 0 1 0-.85l.96-.96.85.85-.96.96zm3.22 3.73a.6.6 0 0 1-.86 0 .6.6 0 0 1 0-.84l.97-.96.85.85-.96.95zm3.48-3.47-1.77 1.76-.85-.85 1.77-1.75a.53.53 0 0 0 .09-.14l.02-.04c.02-.04.02-.08.03-.13l.01-.07-.02-.1c0-.04 0-.07-.02-.1a.54.54 0 0 0-.09-.14l-.02-.04-1.61-1.6-.06-.04a.5.5 0 0 0-.08-.05.53.53 0 0 0-.1-.04.5.5 0 0 0-.1-.02h-.03a.6.6 0 0 0-.07 0l-.1.03a.5.5 0 0 0-.1.04l-.06.03-1.77 1.33-.9-.9 2.4-2.38 4.36 4.28-.93.92zm6.82-7.02h-.07l-.1.01a.48.48 0 0 0-.18.07.5.5 0 0 0-.08.06l-.04.03-4.7 5.15-4.33-4.26 2.84-2.82a.53.53 0 0 0-.38-.9H6.72l.03-1.6 3.1.03a6.93 6.93 0 0 0 4.98 2.1c.44 0 .86-.05 1.28-.12l.13.08 2.4.96.16.76.18.88-3-.42zm4.04.18-.31-1.56 1.44-1.08.95 1.26-2.08 1.38zm3.75-2.83-.83.79-.94-1.24.84-.64a.73.73 0 0 1 .54-.14.72.72 0 0 1 .4 1.23z"/><path fill="#212121" style="fill:var(--color2, #212121)" d="m13.6 18.54-2.14-2.13a.53.53 0 0 0-.75 0l-2.15 2.13c-.1.1-.15.23-.15.38s.06.28.15.38l2.15 2.13a.53.53 0 0 0 .75 0l2.14-2.13a.53.53 0 0 0 0-.76zm-2.52 1.76L9.7 18.92l1.38-1.38 1.39 1.38-1.39 1.38zm6.08-15.23-.25 1.04c.07.01 1.73.45 1.73 2.15h1.07c0-2.02-1.66-2.97-2.55-3.19zm2.55 4.25h-1.07v1.07h1.07V9.32z"/></symbol><symbol id="iconclock-svg" viewBox="0 0 32 32"><path fill="#212121" style="fill:var(--color2, #212121)" d="M31.3 15.3a15.3 15.3 0 1 0-20.07 14.55l.1.03a.67.67 0 0 0 .53-.07c.14-.07.24-.2.29-.35L16 17.21a1.91 1.91 0 1 0-.85-3.63h.01l-5.1-5.11a.64.64 0 0 0-.9.9l5.1 5.11a1.87 1.87 0 0 0 .53 2.3v.01l-3.68 11.67a14.04 14.04 0 1 1 10.66-.38l-.09.03-.4-1.87a.64.64 0 0 0-1.05-.34l-3.83 3.42a.64.64 0 0 0 .23 1.08l4.9 1.57c.05.02.12.03.2.03a.64.64 0 0 0 .62-.77l-.4-1.84a15.29 15.29 0 0 0 9.33-14.06v-.03zM16 14.66a.64.64 0 0 1 0 1.28.64.64 0 0 1 0-1.28zm2.1 14.87 2.18-1.95.6 2.84-2.79-.9z"/><path fill="#2196f3" style="fill:var(--color1, #2196f3)" d="M15.35 3.19v1.27a.64.64 0 0 0 1.28 0V3.19a.64.64 0 1 0-1.28 0zM3.88 14.66a.64.64 0 0 0 0 1.28h1.27a.64.64 0 0 0 0-1.28H3.88zm24.23 1.28a.64.64 0 0 0 0-1.28h-1.28a.64.64 0 0 0 0 1.28h1.28z"/></symbol><symbol id="icondiagram-svg" viewBox="0 0 32 32"><path fill="#2196f3" style="fill:var(--color1, #2196f3)" d="M14.93 14.96h1.06v4.8h-1.06v-4.8zm4.26 2.14h1.07v2.66h-1.07V17.1zm-8.53 1.6h1.07v1.06h-1.07V18.7zm-3.2-.54h1.07v1.6H7.46v-1.6z"/><path fill="#212121" style="fill:var(--color2, #212121)" d="M1.6 28.3h25.58c.89 0 1.6-.73 1.6-1.6v-2.14c0-.88-.71-1.6-1.6-1.6h-.53V9.66l3.03-2.86a1.6 1.6 0 1 0-.74-.75v-.01L26.64 8.2V6.97c0-.88-.71-1.6-1.6-1.6H3.73c-.88 0-1.6.72-1.6 1.6v16H1.6c-.88 0-1.6.7-1.6 1.59v2.13c0 .88.72 1.6 1.6 1.6zM30.38 4.83a.53.53 0 0 1 0 1.06.53.53 0 0 1 0-1.06zM3.2 6.97c0-.3.24-.53.53-.53h21.32c.3 0 .54.23.54.53V9.2l-1.07 1.01V8.04c0-.3-.24-.54-.53-.54H4.79c-.29 0-.53.24-.53.53v13.33c0 .3.24.54.54.54h19.19c.3 0 .53-.24.53-.54V11.7l1.07-1.01v12.28H3.19v-16zM8 13.9a1.6 1.6 0 1 0 1.1 2.75l1.86.93c.21.1.47.05.63-.13l3.94-4.43 3.87 2.9c.21.16.5.14.69-.03l3.36-3.2v8.14H5.33V8.57h18.12v2.66l-3.77 3.57-3.9-2.93a.53.53 0 0 0-.72.07l-4 4.5-1.49-.75c.02-.06.02-.12.02-.19 0-.88-.71-1.6-1.6-1.6zm.53 1.6a.53.53 0 0 1-1.07 0 .53.53 0 0 1 1.07 0zm3.2 8.53h5.33v.53c0 .3-.24.53-.54.53h-4.26a.53.53 0 0 1-.53-.53v-.53zm-10.66.53c0-.3.24-.53.53-.53h9.06v.53c0 .88.72 1.6 1.6 1.6h4.27c.88 0 1.6-.72 1.6-1.6v-.53h9.06c.3 0 .53.24.53.53v2.13c0 .3-.24.53-.53.53H1.6a.53.53 0 0 1-.53-.53v-2.13z"/></symbol><symbol id="iconenvelope-svg" viewBox="0 0 43 32"><path  d="M29 4H3a3 3 0 0 0-3 3v18a3 3 0 0 0 3 3h26a3 3 0 0 0 3-3V7a3 3 0 0 0-3-3zm0 2a1 1 0 0 1 .38.08L16 17.68 2.62 6.08A1 1 0 0 1 3 6h26zm0 20H3a1 1 0 0 1-1-1V8.19l13.35 11.57a1 1 0 0 0 1.3 0L30 8.19V25a1 1 0 0 1-1 1z"/></symbol><symbol id="iconfacebook-svg" viewBox="0 0 32 32"><path  d="M20.53 5.31h2.92V.22a36.5 36.5 0 0 0-4.1-.22h-.16c-4.2 0-7.1 2.65-7.1 7.52V12H7.46v5.69h4.65V32h5.7V17.69h4.46l.7-5.69H17.8V8.08c0-1.64.45-2.77 2.74-2.77z"/></symbol><symbol id="iconinstagram-svg" viewBox="0 0 32 32"><path  d="M31.97 9.4a11.7 11.7 0 0 0-.74-3.87 7.84 7.84 0 0 0-1.85-2.84A7.9 7.9 0 0 0 26.6.86l-.06-.02C25.52.44 24.36.18 22.66.1 20.95.02 20.4 0 16.06 0c-4.35 0-4.89.02-6.6.1-1.7.07-2.87.34-3.88.74a7.85 7.85 0 0 0-2.84 1.85A7.9 7.9 0 0 0 .92 5.46l-.02.06A11.7 11.7 0 0 0 .16 9.4c-.09 1.71-.1 2.26-.1 6.6 0 4.35.01 4.9.09 6.6.07 1.7.35 2.87.74 3.88a7.91 7.91 0 0 0 1.85 2.84c.8.81 1.77 1.44 2.84 1.84 1.01.4 2.18.67 3.88.75 1.7.07 2.25.09 6.6.09 4.34 0 4.88-.02 6.59-.1a11.7 11.7 0 0 0 3.88-.74 8.24 8.24 0 0 0 4.66-4.63l.02-.05c.4-1.02.67-2.18.75-3.88.07-1.7.09-2.25.09-6.6s0-4.88-.08-6.6zm-2.88 13.07a8.86 8.86 0 0 1-.55 2.97 5.34 5.34 0 0 1-3 3.03l-.04.01c-.56.22-1.41.48-2.97.55-1.69.07-2.2.1-6.46.1-4.27 0-4.79-.02-6.47-.1a8.78 8.78 0 0 1-2.97-.55 4.95 4.95 0 0 1-1.83-1.2 4.98 4.98 0 0 1-1.19-1.8l-.01-.03a8.84 8.84 0 0 1-.55-2.97c-.07-1.69-.1-2.2-.1-6.46 0-4.27.03-4.79.1-6.47.07-1.56.33-2.4.55-2.97a4.9 4.9 0 0 1 1.2-1.84c.5-.51 1.12-.92 1.8-1.18l.04-.01A8.8 8.8 0 0 1 9.61 3c1.69-.07 2.2-.1 6.46-.1 4.28 0 4.78.03 6.47.1 1.56.07 2.4.33 2.97.55.69.26 1.32.66 1.83 1.2.53.51.94 1.14 1.2 1.83.22.56.48 1.41.55 2.97.07 1.69.1 2.2.1 6.47 0 4.26-.03 4.76-.1 6.45z"/><path  d="M16.06 7.78a8.22 8.22 0 1 0 0 16.44 8.22 8.22 0 0 0 0-16.44zm0 13.55a5.33 5.33 0 0 1 0-10.66 5.33 5.33 0 1 1 0 10.67zM26.52 7.46a1.92 1.92 0 0 1-3.84 0 1.92 1.92 0 0 1 3.84 0z"/></symbol><symbol id="iconlinkedin-svg" viewBox="0 0 32 32"><path  d="M32 32V20.26c0-5.74-1.24-10.16-7.95-10.16-3.22 0-5.39 1.77-6.27 3.45h-.1v-2.92h-6.36V32h6.62V21.42c0-2.79.53-5.48 3.98-5.48 3.4 0 3.45 3.18 3.45 5.66V32H32zM.52 10.63h6.63V32H.53V10.63zM3.84 0A3.84 3.84 0 0 0 0 3.84a3.88 3.88 0 0 0 3.84 3.88c2.12 0 3.85-1.76 3.85-3.88S5.97 0 3.84 0z"/></symbol><symbol id="iconsatellite-svg" viewBox="0 0 32 32"><path fill="#212121" style="fill:var(--color2, #212121)" d="m30.77 22.1-8.44-8.5.94-4.62c.22.09.48.14.75.14h.04a2.16 2.16 0 1 0-2.03-1.42V7.7l-4.97.6L8.97.16A.53.53 0 0 0 8.6 0a.54.54 0 0 0-.38.16l-1.5 1.5a.53.53 0 0 0 0 .75l.8.83a14.9 14.9 0 0 0 2.52 17.66c.05.04.1.08.15.1-.03.16-.05.35-.05.55v6.18h-6.4a2.67 2.67 0 0 0-2.67 2.67v1.07c0 .3.24.53.54.53h24.53c.3 0 .53-.24.53-.53V30.4c0-1.47-1.2-2.67-2.66-2.67h-6.4V25a14.78 14.78 0 0 0 10.17-1.5l-.08.04.81.82c.1.1.24.16.38.16s.27-.06.37-.15l1.52-1.5a.53.53 0 0 0 0-.76zM23.28 6.23c.2-.19.46-.3.75-.3a1.07 1.07 0 0 1 0 2.13 1.07 1.07 0 0 1-.75-1.83zm-1.26 3.5-.6 2.95-1.17-1.18 1.78-1.76zm-.6-.9-1.92 1.91L18 9.25l3.4-.41zM24 28.8c.89 0 1.6.72 1.6 1.6v.53H2.14v-.53c0-.88.71-1.6 1.6-1.6H24zm-7.46-2.13v1.06H11.2v-1.06h5.34zM11.2 25.6v-4.05c0-1.3 1.2-2.35 2.67-2.35s2.67 1.05 2.67 2.35v4.05H11.2zm6.4-1.7v-2.35c0-1.89-1.67-3.42-3.73-3.42h-.06a3.8 3.8 0 0 0-3.21 1.78v.01A13.82 13.82 0 0 1 8.34 3.96l-.04.07 18.6 18.71a13.63 13.63 0 0 1-9.4 1.15l.1.02zm11.3-.68L7.83 2.04l.75-.75 7.94 7.98 13.12 13.2-.76.75z"/><path fill="#2196f3" style="fill:var(--color1, #2196f3)" d="M13.88 20.27h-.01a1.6 1.6 0 0 0 0 3.2 1.6 1.6 0 0 0 0-3.2zm.37 1.98c-.1.1-.23.15-.38.15a.53.53 0 0 1 0-1.07.53.53 0 0 1 .38.91z"/></symbol><symbol id="iconsmartphone-svg" viewBox="0 0 32 32"><path  d="M23 0H9a3 3 0 0 0-3 3v26a3 3 0 0 0 3 3h14a3 3 0 0 0 3-3V3a3 3 0 0 0-3-3zM9 2h14a1 1 0 0 1 1 1v21H8V3a1 1 0 0 1 1-1zm14 28H9a1 1 0 0 1-1-1v-3h16v3a1 1 0 0 1-1 1z"/><path fill="#757575" style="fill:var(--color3, #757575)" d="M10.7 27.48c.4.36.4.95 0 1.32s-1.02.36-1.4 0c-.4-.37-.4-.96 0-1.32s1.02-.37 1.4 0z"/></symbol><symbol id="icontwitter-svg" viewBox="0 0 32 32"><path  d="M32 6.08c-1.1.5-2.38.86-3.71 1.03h-.07a6.56 6.56 0 0 0 2.87-3.58l.01-.04c-1.2.72-2.59 1.27-4.07 1.57l-.09.02A6.54 6.54 0 0 0 15.6 9.55c0 .52.04 1.02.15 1.5A18.57 18.57 0 0 1 2.23 4.2c-.56.95-.9 2.09-.9 3.3v.01a6.58 6.58 0 0 0 2.91 5.45 6.45 6.45 0 0 1-3-.82l.04.02v.07a6.6 6.6 0 0 0 5.21 6.44h.05a6.4 6.4 0 0 1-1.67.22H4.8c-.41 0-.84-.02-1.23-.11a6.62 6.62 0 0 0 6.13 4.57 13.1 13.1 0 0 1-8.13 2.8H1.51c-.53 0-1.06-.04-1.57-.1H0A18.3 18.3 0 0 0 10 29h.07c12.07 0 18.67-10 18.67-18.67 0-.29-.01-.57-.03-.85a13.2 13.2 0 0 0 3.26-3.35l.03-.05z"/></symbol><symbol id="iconemail-black-svg" viewBox="0 0 32 32"><path d="M26.67 5.33H5.33A2.66 2.66 0 0 0 2.68 8l-.01 16c0 1.47 1.2 2.67 2.67 2.67h21.33c1.46 0 2.66-1.2 2.66-2.67V8c0-1.47-1.2-2.67-2.66-2.67zM26.13 11l-9.42 5.9c-.43.26-1 .26-1.42 0L5.87 11a1.13 1.13 0 1 1 1.2-1.92L16 14.67l8.93-5.59a1.13 1.13 0 1 1 1.2 1.92z"/></symbol><symbol id="icon-send" viewBox="0 0 32 32"><path fill="#fff" style="fill:var(--color1, #fff)" d="M32 0 0 18l10.23 3.79L26 7 14 23.19h.01H14V32l5.74-6.7L27 28l5-28z"/></symbol><symbol id="iconperson-black-svg" viewBox="0 0 32 32"><path d="M16 16a5.33 5.33 0 1 0 0-10.66A5.33 5.33 0 0 0 16 16zm0 2.67c-3.56 0-10.67 1.78-10.67 5.33v1.33c0 .74.6 1.34 1.34 1.34h18.66c.74 0 1.34-.6 1.34-1.34V24c0-3.55-7.11-5.33-10.67-5.33z"/></symbol><symbol id="iconphone-black-svg" viewBox="0 0 32 32"><path d="m24.88 19.77-3.27-.37a2.56 2.56 0 0 0-2.1.73l-2.37 2.37a19.36 19.36 0 0 1-8.48-8.48l2.38-2.38c.55-.55.82-1.32.73-2.1l-.37-3.25a2.57 2.57 0 0 0-2.56-2.28H6.6a2.55 2.55 0 0 0-2.57 2.67 21.86 21.86 0 0 0 20.44 20.44 2.55 2.55 0 0 0 2.67-2.57v-2.23c0-1.3-.97-2.4-2.27-2.55z"/></symbol><symbol id="icon-check-icon" viewBox="0 0 42 32">
<path stroke-linejoin="miter" stroke-linecap="butt" stroke-miterlimit="4" stroke-width="0.64" d="M6.272 15.2l-0.224-0.192-0.224 0.192-2.848 2.688-0.256 0.224 0.256 0.256 11.424 10.88 0.192-0.224 24.256-23.136-0.224-0.224-2.816-2.688-0.224-0.224-0.224 0.224-20.96 19.968-8.128-7.744z"></path>
</symbol></defs></svg>